# xmcd CD database file
#
# Track frame offsets:
#	150
#	16285
#	32883
#	51686
#	67355
#	81044
#	93026
#	110898
#	124896
#	141890
#	154349
#	168626
#
# Disc length: 2406 seconds
#
# Revision: 0
# Processed by: cddbd v1.5.2PL0 Copyright (c) Steve Scherf et al.
# Submitted via: Feurio! 1.68 - http://www.feurio.com
#
DISCID=b209640c
DTITLE=The Kings - Redbud Tree
DYEAR=1900
DGENRE=Bluegrass
TTITLE0=Jumpstart
TTITLE1=That's My Life
TTITLE2=Redbud Tree
TTITLE3=Simple Life
TTITLE4=I Need You
TTITLE5=Through The Storm
TTITLE6=Country Home
TTITLE7=Turn Around
TTITLE8=This Old Flag
TTITLE9=Flash Flood
TTITLE10=Thought You Knew
TTITLE11=Through The Storm - Girls
EXTD=
EXTT0=
EXTT1=
EXTT2=
EXTT3=
EXTT4=
EXTT5=
EXTT6=
EXTT7=
EXTT8=
EXTT9=
EXTT10=
EXTT11=
PLAYORDER=
